solid OpenSCAD_Model
  facet normal -1 0 0
    outer loop
      vertex -19.25 -15.5 0
      vertex -19.25 15 2
      vertex -19.25 15 0
    endloop
  endfacet
  facet normal -1 -0 0
    outer loop
      vertex -19.25 15 2
      vertex -19.25 -15.5 0
      vertex -19.25 -15.5 2
    endloop
  endfacet
  facet normal 0 0 1
    outer loop
      vertex -10.5 -13.5 2
      vertex -17.25 -13.5 2
      vertex -10.5 -13.6 2
    endloop
  endfacet
  facet normal 0 0 1
    outer loop
      vertex 19.25 15 2
      vertex 17.25 13 2
      vertex 19.25 -15.5 2
    endloop
  endfacet
  facet normal 0 0 1
    outer loop
      vertex 19.25 15 2
      vertex 12.5 13.1 2
      vertex 17.25 13 2
    endloop
  endfacet
  facet normal 0 0 1
    outer loop
      vertex 19.25 15 2
      vertex -10.5 13.1 2
      vertex 12.5 13.1 2
    endloop
  endfacet
  facet normal 0 0 1
    outer loop
      vertex -10.5 13.1 2
      vertex -17.25 13 2
      vertex -10.5 13 2
    endloop
  endfacet
  facet normal -0 0 1
    outer loop
      vertex -19.25 15 2
      vertex -10.5 13.1 2
      vertex 19.25 15 2
    endloop
  endfacet
  facet normal 0 0 1
    outer loop
      vertex -17.25 13 2
      vertex -19.25 15 2
      vertex -17.25 -13.5 2
    endloop
  endfacet
  facet normal 0 0 1
    outer loop
      vertex -10.5 13.1 2
      vertex -19.25 15 2
      vertex -17.25 13 2
    endloop
  endfacet
  facet normal -0 0 1
    outer loop
      vertex 17.25 -13.5 2
      vertex 19.25 -15.5 2
      vertex 17.25 13 2
    endloop
  endfacet
  facet normal 0 0 1
    outer loop
      vertex 12.5 -13.6 2
      vertex 17.25 -13.5 2
      vertex 12.5 -13.5 2
    endloop
  endfacet
  facet normal 0 0 1
    outer loop
      vertex 17.25 -13.5 2
      vertex 12.5 -13.6 2
      vertex 19.25 -15.5 2
    endloop
  endfacet
  facet normal -0 0 1
    outer loop
      vertex -10.5 -13.6 2
      vertex 19.25 -15.5 2
      vertex 12.5 -13.6 2
    endloop
  endfacet
  facet normal 0 0 1
    outer loop
      vertex -19.25 -15.5 2
      vertex -10.5 -13.6 2
      vertex -17.25 -13.5 2
    endloop
  endfacet
  facet normal 0 0 1
    outer loop
      vertex -10.5 -13.6 2
      vertex -19.25 -15.5 2
      vertex 19.25 -15.5 2
    endloop
  endfacet
  facet normal 0 0 1
    outer loop
      vertex -19.25 -15.5 2
      vertex -17.25 -13.5 2
      vertex -19.25 15 2
    endloop
  endfacet
  facet normal 0 0 1
    outer loop
      vertex 17.25 13 2
      vertex 12.5 13.1 2
      vertex 12.5 13 2
    endloop
  endfacet
  facet normal 1 -0 0
    outer loop
      vertex 19.25 -15.5 2
      vertex 19.25 15 0
      vertex 19.25 15 2
    endloop
  endfacet
  facet normal 1 0 0
    outer loop
      vertex 19.25 15 0
      vertex 19.25 -15.5 2
      vertex 19.25 -15.5 0
    endloop
  endfacet
  facet normal 0 1 -0
    outer loop
      vertex 19.25 15 0
      vertex -19.25 15 2
      vertex 19.25 15 2
    endloop
  endfacet
  facet normal 0 1 0
    outer loop
      vertex -19.25 15 2
      vertex 19.25 15 0
      vertex -19.25 15 0
    endloop
  endfacet
  facet normal 0 0 -1
    outer loop
      vertex 12.5 -9.6 0
      vertex 8 -0.25 0
      vertex 12.5 9.1 0
    endloop
  endfacet
  facet normal 0 0 -1
    outer loop
      vertex 12.5 -9.6 0
      vertex 7.71645 -2.22213 0
      vertex 8 -0.25 0
    endloop
  endfacet
  facet normal 0 0 -1
    outer loop
      vertex 12.5 -9.6 0
      vertex 6.88877 -4.03449 0
      vertex 7.71645 -2.22213 0
    endloop
  endfacet
  facet normal 0 0 -1
    outer loop
      vertex 12.5 -9.6 0
      vertex 5.58402 -5.54025 0
      vertex 6.88877 -4.03449 0
    endloop
  endfacet
  facet normal 0 0 -1
    outer loop
      vertex 12.5 -9.6 0
      vertex 3.9079 -6.61742 0
      vertex 5.58402 -5.54025 0
    endloop
  endfacet
  facet normal 0 0 -1
    outer loop
      vertex 12.5 -9.6 0
      vertex 1.9962 -7.17875 0
      vertex 3.9079 -6.61742 0
    endloop
  endfacet
  facet normal 0 0 -1
    outer loop
      vertex 12.5 -9.6 0
      vertex 0.00379562 -7.17875 0
      vertex 1.9962 -7.17875 0
    endloop
  endfacet
  facet normal -0 0 -1
    outer loop
      vertex -5.71645 -2.22213 0
      vertex -10.5 -9.6 0
      vertex -6 -0.25 0
    endloop
  endfacet
  facet normal -0 0 -1
    outer loop
      vertex -4.88877 -4.03449 0
      vertex -10.5 -9.6 0
      vertex -5.71645 -2.22213 0
    endloop
  endfacet
  facet normal -0 0 -1
    outer loop
      vertex -3.58402 -5.54025 0
      vertex -10.5 -9.6 0
      vertex -4.88877 -4.03449 0
    endloop
  endfacet
  facet normal -0 0 -1
    outer loop
      vertex -1.9079 -6.61742 0
      vertex -10.5 -9.6 0
      vertex -3.58402 -5.54025 0
    endloop
  endfacet
  facet normal -0 0 -1
    outer loop
      vertex 0.00379562 -7.17875 0
      vertex -10.5 -9.6 0
      vertex -1.9079 -6.61742 0
    endloop
  endfacet
  facet normal 0 0 -1
    outer loop
      vertex -10.5 -9.6 0
      vertex 0.00379562 -7.17875 0
      vertex 12.5 -9.6 0
    endloop
  endfacet
  facet normal 0 0 -1
    outer loop
      vertex 12.5 -9.6 0
      vertex 19.25 -15.5 0
      vertex 12.5 -13.6 0
    endloop
  endfacet
  facet normal 0 0 -1
    outer loop
      vertex 19.25 -15.5 0
      vertex -10.5 -13.6 0
      vertex 12.5 -13.6 0
    endloop
  endfacet
  facet normal 0 0 -1
    outer loop
      vertex -19.25 -15.5 0
      vertex -10.5 -9.6 0
      vertex -10.5 -13.6 0
    endloop
  endfacet
  facet normal -0 0 -1
    outer loop
      vertex -10.5 -9.6 0
      vertex -19.25 -15.5 0
      vertex -10.5 9.1 0
    endloop
  endfacet
  facet normal 0 0 -1
    outer loop
      vertex -19.25 15 0
      vertex -10.5 9.1 0
      vertex -19.25 -15.5 0
    endloop
  endfacet
  facet normal 0 0 -1
    outer loop
      vertex -19.25 -15.5 0
      vertex -10.5 -13.6 0
      vertex 19.25 -15.5 0
    endloop
  endfacet
  facet normal 0 0 -1
    outer loop
      vertex 19.25 -15.5 0
      vertex 12.5 -9.6 0
      vertex 19.25 15 0
    endloop
  endfacet
  facet normal 0 0 -1
    outer loop
      vertex 12.5 9.1 0
      vertex 19.25 15 0
      vertex 12.5 -9.6 0
    endloop
  endfacet
  facet normal 0 0 -1
    outer loop
      vertex 12.5 13.1 0
      vertex 19.25 15 0
      vertex 12.5 9.1 0
    endloop
  endfacet
  facet normal 0 0 -1
    outer loop
      vertex -10.5 13.1 0
      vertex 19.25 15 0
      vertex 12.5 13.1 0
    endloop
  endfacet
  facet normal 0 0 -1
    outer loop
      vertex -10.5 13.1 0
      vertex -19.25 15 0
      vertex 19.25 15 0
    endloop
  endfacet
  facet normal 0 0 -1
    outer loop
      vertex -10.5 9.1 0
      vertex -19.25 15 0
      vertex -10.5 13.1 0
    endloop
  endfacet
  facet normal 0 0 -1
    outer loop
      vertex 7.71645 1.72213 0
      vertex 12.5 9.1 0
      vertex 8 -0.25 0
    endloop
  endfacet
  facet normal 0 0 -1
    outer loop
      vertex 6.88877 3.53448 0
      vertex 12.5 9.1 0
      vertex 7.71645 1.72213 0
    endloop
  endfacet
  facet normal 0 0 -1
    outer loop
      vertex 5.58402 5.04025 0
      vertex 12.5 9.1 0
      vertex 6.88877 3.53448 0
    endloop
  endfacet
  facet normal 0 0 -1
    outer loop
      vertex 3.9079 6.11742 0
      vertex 12.5 9.1 0
      vertex 5.58402 5.04025 0
    endloop
  endfacet
  facet normal 0 0 -1
    outer loop
      vertex 1.9962 6.67875 0
      vertex 12.5 9.1 0
      vertex 3.9079 6.11742 0
    endloop
  endfacet
  facet normal 0 0 -1
    outer loop
      vertex 0.00379562 6.67875 0
      vertex 12.5 9.1 0
      vertex 1.9962 6.67875 0
    endloop
  endfacet
  facet normal 0 0 -1
    outer loop
      vertex -10.5 9.1 0
      vertex -6 -0.25 0
      vertex -10.5 -9.6 0
    endloop
  endfacet
  facet normal 0 0 -1
    outer loop
      vertex 0.00379562 6.67875 0
      vertex -10.5 9.1 0
      vertex 12.5 9.1 0
    endloop
  endfacet
  facet normal 0 0 -1
    outer loop
      vertex -1.9079 6.11742 0
      vertex -10.5 9.1 0
      vertex 0.00379562 6.67875 0
    endloop
  endfacet
  facet normal 0 0 -1
    outer loop
      vertex -3.58402 5.04025 0
      vertex -10.5 9.1 0
      vertex -1.9079 6.11742 0
    endloop
  endfacet
  facet normal 0 0 -1
    outer loop
      vertex -4.88877 3.53448 0
      vertex -10.5 9.1 0
      vertex -3.58402 5.04025 0
    endloop
  endfacet
  facet normal 0 0 -1
    outer loop
      vertex -5.71645 1.72213 0
      vertex -10.5 9.1 0
      vertex -4.88877 3.53448 0
    endloop
  endfacet
  facet normal 0 0 -1
    outer loop
      vertex -6 -0.25 0
      vertex -10.5 9.1 0
      vertex -5.71645 1.72213 0
    endloop
  endfacet
  facet normal 0 -1 0
    outer loop
      vertex -19.25 -15.5 0
      vertex 19.25 -15.5 2
      vertex -19.25 -15.5 2
    endloop
  endfacet
  facet normal 0 -1 -0
    outer loop
      vertex 19.25 -15.5 2
      vertex -19.25 -15.5 0
      vertex 19.25 -15.5 0
    endloop
  endfacet
  facet normal -1 0 0
    outer loop
      vertex -17.25 -13.5 2
      vertex -17.25 13 3.5
      vertex -17.25 13 2
    endloop
  endfacet
  facet normal -1 -0 0
    outer loop
      vertex -17.25 13 3.5
      vertex -17.25 -13.5 2
      vertex -17.25 -13.5 3.5
    endloop
  endfacet
  facet normal -0 0 1
    outer loop
      vertex -17.25 13 3.5
      vertex -10.5 9.1 3.5
      vertex -10.5 13 3.5
    endloop
  endfacet
  facet normal 0 0 1
    outer loop
      vertex -10.5 9.1 3.5
      vertex -17.25 13 3.5
      vertex -10.5 -9.6 3.5
    endloop
  endfacet
  facet normal 0 0 1
    outer loop
      vertex -17.25 -13.5 3.5
      vertex -10.5 -9.6 3.5
      vertex -17.25 13 3.5
    endloop
  endfacet
  facet normal 0 0 1
    outer loop
      vertex -10.5 -9.6 3.5
      vertex -17.25 -13.5 3.5
      vertex -10.5 -13.5 3.5
    endloop
  endfacet
  facet normal 0 0 1
    outer loop
      vertex 12.5 9.1 3.5
      vertex 8 -0.25 3.5
      vertex 12.5 -9.6 3.5
    endloop
  endfacet
  facet normal 0 0 1
    outer loop
      vertex 12.5 9.1 3.5
      vertex 7.71645 1.72213 3.5
      vertex 8 -0.25 3.5
    endloop
  endfacet
  facet normal 0 0 1
    outer loop
      vertex 12.5 9.1 3.5
      vertex 6.88877 3.53448 3.5
      vertex 7.71645 1.72213 3.5
    endloop
  endfacet
  facet normal 0 0 1
    outer loop
      vertex 12.5 9.1 3.5
      vertex 5.58402 5.04025 3.5
      vertex 6.88877 3.53448 3.5
    endloop
  endfacet
  facet normal 0 0 1
    outer loop
      vertex 12.5 9.1 3.5
      vertex 3.9079 6.11742 3.5
      vertex 5.58402 5.04025 3.5
    endloop
  endfacet
  facet normal 0 0 1
    outer loop
      vertex 12.5 9.1 3.5
      vertex 1.9962 6.67875 3.5
      vertex 3.9079 6.11742 3.5
    endloop
  endfacet
  facet normal 0 0 1
    outer loop
      vertex 12.5 9.1 3.5
      vertex 0.00379562 6.67875 3.5
      vertex 1.9962 6.67875 3.5
    endloop
  endfacet
  facet normal 0 0 1
    outer loop
      vertex -5.71645 1.72213 3.5
      vertex -10.5 9.1 3.5
      vertex -6 -0.25 3.5
    endloop
  endfacet
  facet normal 0 0 1
    outer loop
      vertex -4.88877 3.53448 3.5
      vertex -10.5 9.1 3.5
      vertex -5.71645 1.72213 3.5
    endloop
  endfacet
  facet normal 0 0 1
    outer loop
      vertex -3.58402 5.04025 3.5
      vertex -10.5 9.1 3.5
      vertex -4.88877 3.53448 3.5
    endloop
  endfacet
  facet normal 0 0 1
    outer loop
      vertex -1.9079 6.11742 3.5
      vertex -10.5 9.1 3.5
      vertex -3.58402 5.04025 3.5
    endloop
  endfacet
  facet normal 0 0 1
    outer loop
      vertex 0.00379562 6.67875 3.5
      vertex -10.5 9.1 3.5
      vertex -1.9079 6.11742 3.5
    endloop
  endfacet
  facet normal -0 0 1
    outer loop
      vertex -10.5 9.1 3.5
      vertex 0.00379562 6.67875 3.5
      vertex 12.5 9.1 3.5
    endloop
  endfacet
  facet normal 0 0 1
    outer loop
      vertex 12.5 9.1 3.5
      vertex 17.25 13 3.5
      vertex 12.5 13 3.5
    endloop
  endfacet
  facet normal 0 0 1
    outer loop
      vertex 17.25 13 3.5
      vertex 12.5 9.1 3.5
      vertex 17.25 -13.5 3.5
    endloop
  endfacet
  facet normal -0 0 1
    outer loop
      vertex 12.5 -9.6 3.5
      vertex 17.25 -13.5 3.5
      vertex 12.5 9.1 3.5
    endloop
  endfacet
  facet normal 0 0 1
    outer loop
      vertex 17.25 -13.5 3.5
      vertex 12.5 -9.6 3.5
      vertex 12.5 -13.5 3.5
    endloop
  endfacet
  facet normal -0 0 1
    outer loop
      vertex 7.71645 -2.22213 3.5
      vertex 12.5 -9.6 3.5
      vertex 8 -0.25 3.5
    endloop
  endfacet
  facet normal -0 0 1
    outer loop
      vertex 6.88877 -4.03449 3.5
      vertex 12.5 -9.6 3.5
      vertex 7.71645 -2.22213 3.5
    endloop
  endfacet
  facet normal -0 0 1
    outer loop
      vertex 5.58402 -5.54025 3.5
      vertex 12.5 -9.6 3.5
      vertex 6.88877 -4.03449 3.5
    endloop
  endfacet
  facet normal -0 0 1
    outer loop
      vertex 3.9079 -6.61742 3.5
      vertex 12.5 -9.6 3.5
      vertex 5.58402 -5.54025 3.5
    endloop
  endfacet
  facet normal -0 0 1
    outer loop
      vertex 1.9962 -7.17875 3.5
      vertex 12.5 -9.6 3.5
      vertex 3.9079 -6.61742 3.5
    endloop
  endfacet
  facet normal -0 0 1
    outer loop
      vertex 0.00379562 -7.17875 3.5
      vertex 12.5 -9.6 3.5
      vertex 1.9962 -7.17875 3.5
    endloop
  endfacet
  facet normal 0 0 1
    outer loop
      vertex -10.5 -9.6 3.5
      vertex -6 -0.25 3.5
      vertex -10.5 9.1 3.5
    endloop
  endfacet
  facet normal 0 0 1
    outer loop
      vertex 0.00379562 -7.17875 3.5
      vertex -10.5 -9.6 3.5
      vertex 12.5 -9.6 3.5
    endloop
  endfacet
  facet normal 0 0 1
    outer loop
      vertex -1.9079 -6.61742 3.5
      vertex -10.5 -9.6 3.5
      vertex 0.00379562 -7.17875 3.5
    endloop
  endfacet
  facet normal 0 0 1
    outer loop
      vertex -3.58402 -5.54025 3.5
      vertex -10.5 -9.6 3.5
      vertex -1.9079 -6.61742 3.5
    endloop
  endfacet
  facet normal 0 0 1
    outer loop
      vertex -4.88877 -4.03449 3.5
      vertex -10.5 -9.6 3.5
      vertex -3.58402 -5.54025 3.5
    endloop
  endfacet
  facet normal 0 0 1
    outer loop
      vertex -5.71645 -2.22213 3.5
      vertex -10.5 -9.6 3.5
      vertex -4.88877 -4.03449 3.5
    endloop
  endfacet
  facet normal 0 0 1
    outer loop
      vertex -6 -0.25 3.5
      vertex -10.5 -9.6 3.5
      vertex -5.71645 -2.22213 3.5
    endloop
  endfacet
  facet normal 1 -0 0
    outer loop
      vertex 17.25 -13.5 3.5
      vertex 17.25 13 2
      vertex 17.25 13 3.5
    endloop
  endfacet
  facet normal 1 0 0
    outer loop
      vertex 17.25 13 2
      vertex 17.25 -13.5 3.5
      vertex 17.25 -13.5 2
    endloop
  endfacet
  facet normal 0 1 -0
    outer loop
      vertex 17.25 13 2
      vertex 12.5 13 3.5
      vertex 17.25 13 3.5
    endloop
  endfacet
  facet normal 0 1 0
    outer loop
      vertex 12.5 13 3.5
      vertex 17.25 13 2
      vertex 12.5 13 2
    endloop
  endfacet
  facet normal 0 1 -0
    outer loop
      vertex -10.5 13 2
      vertex -17.25 13 3.5
      vertex -10.5 13 3.5
    endloop
  endfacet
  facet normal 0 1 0
    outer loop
      vertex -17.25 13 3.5
      vertex -10.5 13 2
      vertex -17.25 13 2
    endloop
  endfacet
  facet normal 0 -1 0
    outer loop
      vertex 12.5 -13.5 2
      vertex 17.25 -13.5 3.5
      vertex 12.5 -13.5 3.5
    endloop
  endfacet
  facet normal 0 -1 -0
    outer loop
      vertex 17.25 -13.5 3.5
      vertex 12.5 -13.5 2
      vertex 17.25 -13.5 2
    endloop
  endfacet
  facet normal 0 -1 0
    outer loop
      vertex -17.25 -13.5 2
      vertex -10.5 -13.5 3.5
      vertex -17.25 -13.5 3.5
    endloop
  endfacet
  facet normal 0 -1 -0
    outer loop
      vertex -10.5 -13.5 3.5
      vertex -17.25 -13.5 2
      vertex -10.5 -13.5 2
    endloop
  endfacet
  facet normal -0.989821 -0.142315 0
    outer loop
      vertex 8 -0.25 0
      vertex 7.71645 1.72213 3.5
      vertex 7.71645 1.72213 0
    endloop
  endfacet
  facet normal -0.989821 -0.142315 0
    outer loop
      vertex 7.71645 1.72213 3.5
      vertex 8 -0.25 0
      vertex 8 -0.25 3.5
    endloop
  endfacet
  facet normal 0.989821 0.142315 0
    outer loop
      vertex -5.71645 -2.22213 3.5
      vertex -6 -0.25 0
      vertex -6 -0.25 3.5
    endloop
  endfacet
  facet normal 0.989821 0.142315 0
    outer loop
      vertex -6 -0.25 0
      vertex -5.71645 -2.22213 3.5
      vertex -5.71645 -2.22213 0
    endloop
  endfacet
  facet normal 0 -1 0
    outer loop
      vertex 0.00379562 6.67875 0
      vertex 1.9962 6.67875 3.5
      vertex 0.00379562 6.67875 3.5
    endloop
  endfacet
  facet normal 0 -1 -0
    outer loop
      vertex 1.9962 6.67875 3.5
      vertex 0.00379562 6.67875 0
      vertex 1.9962 6.67875 0
    endloop
  endfacet
  facet normal -0.755751 -0.654859 0
    outer loop
      vertex 6.88877 3.53448 0
      vertex 5.58402 5.04025 3.5
      vertex 5.58402 5.04025 0
    endloop
  endfacet
  facet normal -0.755751 -0.654859 0
    outer loop
      vertex 5.58402 5.04025 3.5
      vertex 6.88877 3.53448 0
      vertex 6.88877 3.53448 3.5
    endloop
  endfacet
  facet normal -0.909631 -0.415418 0
    outer loop
      vertex 7.71645 1.72213 0
      vertex 6.88877 3.53448 3.5
      vertex 6.88877 3.53448 0
    endloop
  endfacet
  facet normal -0.909631 -0.415418 0
    outer loop
      vertex 6.88877 3.53448 3.5
      vertex 7.71645 1.72213 0
      vertex 7.71645 1.72213 3.5
    endloop
  endfacet
  facet normal 0.755751 -0.654859 0
    outer loop
      vertex -4.88877 3.53448 3.5
      vertex -3.58402 5.04025 0
      vertex -3.58402 5.04025 3.5
    endloop
  endfacet
  facet normal 0.755751 -0.654859 0
    outer loop
      vertex -3.58402 5.04025 0
      vertex -4.88877 3.53448 3.5
      vertex -4.88877 3.53448 0
    endloop
  endfacet
  facet normal 0.909631 -0.415418 0
    outer loop
      vertex -5.71645 1.72213 3.5
      vertex -4.88877 3.53448 0
      vertex -4.88877 3.53448 3.5
    endloop
  endfacet
  facet normal 0.909631 -0.415418 0
    outer loop
      vertex -4.88877 3.53448 0
      vertex -5.71645 1.72213 3.5
      vertex -5.71645 1.72213 0
    endloop
  endfacet
  facet normal 0.540638 -0.841255 0
    outer loop
      vertex -3.58402 5.04025 0
      vertex -1.9079 6.11742 3.5
      vertex -3.58402 5.04025 3.5
    endloop
  endfacet
  facet normal 0.540638 -0.841255 0
    outer loop
      vertex -1.9079 6.11742 3.5
      vertex -3.58402 5.04025 0
      vertex -1.9079 6.11742 0
    endloop
  endfacet
  facet normal -0.909631 0.415416 0
    outer loop
      vertex 6.88877 -4.03449 0
      vertex 7.71645 -2.22213 3.5
      vertex 7.71645 -2.22213 0
    endloop
  endfacet
  facet normal -0.909631 0.415416 0
    outer loop
      vertex 7.71645 -2.22213 3.5
      vertex 6.88877 -4.03449 0
      vertex 6.88877 -4.03449 3.5
    endloop
  endfacet
  facet normal 0.909631 0.415416 0
    outer loop
      vertex -4.88877 -4.03449 3.5
      vertex -5.71645 -2.22213 0
      vertex -5.71645 -2.22213 3.5
    endloop
  endfacet
  facet normal 0.909631 0.415416 0
    outer loop
      vertex -5.71645 -2.22213 0
      vertex -4.88877 -4.03449 3.5
      vertex -4.88877 -4.03449 0
    endloop
  endfacet
  facet normal -0.281735 -0.959492 0
    outer loop
      vertex 1.9962 6.67875 0
      vertex 3.9079 6.11742 3.5
      vertex 1.9962 6.67875 3.5
    endloop
  endfacet
  facet normal -0.281735 -0.959492 -0
    outer loop
      vertex 3.9079 6.11742 3.5
      vertex 1.9962 6.67875 0
      vertex 3.9079 6.11742 0
    endloop
  endfacet
  facet normal -0.540638 -0.841255 0
    outer loop
      vertex 3.9079 6.11742 0
      vertex 5.58402 5.04025 3.5
      vertex 3.9079 6.11742 3.5
    endloop
  endfacet
  facet normal -0.540638 -0.841255 -0
    outer loop
      vertex 5.58402 5.04025 3.5
      vertex 3.9079 6.11742 0
      vertex 5.58402 5.04025 0
    endloop
  endfacet
  facet normal 0.989821 -0.142315 0
    outer loop
      vertex -6 -0.25 3.5
      vertex -5.71645 1.72213 0
      vertex -5.71645 1.72213 3.5
    endloop
  endfacet
  facet normal 0.989821 -0.142315 0
    outer loop
      vertex -5.71645 1.72213 0
      vertex -6 -0.25 3.5
      vertex -6 -0.25 0
    endloop
  endfacet
  facet normal 0.281735 -0.959492 0
    outer loop
      vertex -1.9079 6.11742 0
      vertex 0.00379562 6.67875 3.5
      vertex -1.9079 6.11742 3.5
    endloop
  endfacet
  facet normal 0.281735 -0.959492 0
    outer loop
      vertex 0.00379562 6.67875 3.5
      vertex -1.9079 6.11742 0
      vertex 0.00379562 6.67875 0
    endloop
  endfacet
  facet normal -0.989821 0.142315 0
    outer loop
      vertex 7.71645 -2.22213 0
      vertex 8 -0.25 3.5
      vertex 8 -0.25 0
    endloop
  endfacet
  facet normal -0.989821 0.142315 0
    outer loop
      vertex 8 -0.25 3.5
      vertex 7.71645 -2.22213 0
      vertex 7.71645 -2.22213 3.5
    endloop
  endfacet
  facet normal -0.281735 0.959492 0
    outer loop
      vertex 3.9079 -6.61742 0
      vertex 1.9962 -7.17875 3.5
      vertex 3.9079 -6.61742 3.5
    endloop
  endfacet
  facet normal -0.281735 0.959492 0
    outer loop
      vertex 1.9962 -7.17875 3.5
      vertex 3.9079 -6.61742 0
      vertex 1.9962 -7.17875 0
    endloop
  endfacet
  facet normal 0.540638 0.841255 -0
    outer loop
      vertex -1.9079 -6.61742 0
      vertex -3.58402 -5.54025 3.5
      vertex -1.9079 -6.61742 3.5
    endloop
  endfacet
  facet normal 0.540638 0.841255 0
    outer loop
      vertex -3.58402 -5.54025 3.5
      vertex -1.9079 -6.61742 0
      vertex -3.58402 -5.54025 0
    endloop
  endfacet
  facet normal 0 1 -0
    outer loop
      vertex 1.9962 -7.17875 0
      vertex 0.00379562 -7.17875 3.5
      vertex 1.9962 -7.17875 3.5
    endloop
  endfacet
  facet normal 0 1 0
    outer loop
      vertex 0.00379562 -7.17875 3.5
      vertex 1.9962 -7.17875 0
      vertex 0.00379562 -7.17875 0
    endloop
  endfacet
  facet normal 0.755749 0.654861 0
    outer loop
      vertex -3.58402 -5.54025 3.5
      vertex -4.88877 -4.03449 0
      vertex -4.88877 -4.03449 3.5
    endloop
  endfacet
  facet normal 0.755749 0.654861 0
    outer loop
      vertex -4.88877 -4.03449 0
      vertex -3.58402 -5.54025 3.5
      vertex -3.58402 -5.54025 0
    endloop
  endfacet
  facet normal -0.755749 0.654861 0
    outer loop
      vertex 5.58402 -5.54025 0
      vertex 6.88877 -4.03449 3.5
      vertex 6.88877 -4.03449 0
    endloop
  endfacet
  facet normal -0.755749 0.654861 0
    outer loop
      vertex 6.88877 -4.03449 3.5
      vertex 5.58402 -5.54025 0
      vertex 5.58402 -5.54025 3.5
    endloop
  endfacet
  facet normal 0.281735 0.959492 -0
    outer loop
      vertex 0.00379562 -7.17875 0
      vertex -1.9079 -6.61742 3.5
      vertex 0.00379562 -7.17875 3.5
    endloop
  endfacet
  facet normal 0.281735 0.959492 0
    outer loop
      vertex -1.9079 -6.61742 3.5
      vertex 0.00379562 -7.17875 0
      vertex -1.9079 -6.61742 0
    endloop
  endfacet
  facet normal -0.540638 0.841255 0
    outer loop
      vertex 5.58402 -5.54025 0
      vertex 3.9079 -6.61742 3.5
      vertex 5.58402 -5.54025 3.5
    endloop
  endfacet
  facet normal -0.540638 0.841255 0
    outer loop
      vertex 3.9079 -6.61742 3.5
      vertex 5.58402 -5.54025 0
      vertex 3.9079 -6.61742 0
    endloop
  endfacet
  facet normal 0 -1 0
    outer loop
      vertex -10.5 -9.6 0
      vertex 12.5 -9.6 3.5
      vertex -10.5 -9.6 3.5
    endloop
  endfacet
  facet normal 0 -1 -0
    outer loop
      vertex 12.5 -9.6 3.5
      vertex -10.5 -9.6 0
      vertex 12.5 -9.6 0
    endloop
  endfacet
  facet normal 1 0 0
    outer loop
      vertex -10.5 -13.5 2
      vertex -10.5 -9.6 3.5
      vertex -10.5 -13.5 3.5
    endloop
  endfacet
  facet normal 1 0 0
    outer loop
      vertex -10.5 -9.6 3.5
      vertex -10.5 -13.5 2
      vertex -10.5 -9.6 0
    endloop
  endfacet
  facet normal 1 0 0
    outer loop
      vertex -10.5 -13.6 0
      vertex -10.5 -13.5 2
      vertex -10.5 -13.6 2
    endloop
  endfacet
  facet normal 1 0 0
    outer loop
      vertex -10.5 -13.5 2
      vertex -10.5 -13.6 0
      vertex -10.5 -9.6 0
    endloop
  endfacet
  facet normal 0 1 -0
    outer loop
      vertex 12.5 -13.6 0
      vertex -10.5 -13.6 2
      vertex 12.5 -13.6 2
    endloop
  endfacet
  facet normal 0 1 0
    outer loop
      vertex -10.5 -13.6 2
      vertex 12.5 -13.6 0
      vertex -10.5 -13.6 0
    endloop
  endfacet
  facet normal -1 0 0
    outer loop
      vertex 12.5 -9.6 0
      vertex 12.5 -13.5 2
      vertex 12.5 -9.6 3.5
    endloop
  endfacet
  facet normal -1 0 0
    outer loop
      vertex 12.5 -13.6 0
      vertex 12.5 -13.5 2
      vertex 12.5 -9.6 0
    endloop
  endfacet
  facet normal -1 -0 0
    outer loop
      vertex 12.5 -13.5 2
      vertex 12.5 -13.6 0
      vertex 12.5 -13.6 2
    endloop
  endfacet
  facet normal -1 -0 0
    outer loop
      vertex 12.5 -9.6 3.5
      vertex 12.5 -13.5 2
      vertex 12.5 -13.5 3.5
    endloop
  endfacet
  facet normal 0 -1 0
    outer loop
      vertex -10.5 13.1 0
      vertex 12.5 13.1 2
      vertex -10.5 13.1 2
    endloop
  endfacet
  facet normal 0 -1 -0
    outer loop
      vertex 12.5 13.1 2
      vertex -10.5 13.1 0
      vertex 12.5 13.1 0
    endloop
  endfacet
  facet normal 0 1 -0
    outer loop
      vertex 12.5 9.1 0
      vertex -10.5 9.1 3.5
      vertex 12.5 9.1 3.5
    endloop
  endfacet
  facet normal 0 1 0
    outer loop
      vertex -10.5 9.1 3.5
      vertex 12.5 9.1 0
      vertex -10.5 9.1 0
    endloop
  endfacet
  facet normal -1 0 0
    outer loop
      vertex 12.5 13.1 0
      vertex 12.5 13 2
      vertex 12.5 13.1 2
    endloop
  endfacet
  facet normal -1 0 0
    outer loop
      vertex 12.5 9.1 0
      vertex 12.5 13 2
      vertex 12.5 13.1 0
    endloop
  endfacet
  facet normal -1 0 0
    outer loop
      vertex 12.5 9.1 3.5
      vertex 12.5 13 2
      vertex 12.5 9.1 0
    endloop
  endfacet
  facet normal -1 0 0
    outer loop
      vertex 12.5 13 2
      vertex 12.5 9.1 3.5
      vertex 12.5 13 3.5
    endloop
  endfacet
  facet normal 1 0 0
    outer loop
      vertex -10.5 13 3.5
      vertex -10.5 9.1 3.5
      vertex -10.5 13 2
    endloop
  endfacet
  facet normal 1 -0 0
    outer loop
      vertex -10.5 13 2
      vertex -10.5 13.1 0
      vertex -10.5 13.1 2
    endloop
  endfacet
  facet normal 1 0 0
    outer loop
      vertex -10.5 9.1 0
      vertex -10.5 13 2
      vertex -10.5 9.1 3.5
    endloop
  endfacet
  facet normal 1 0 0
    outer loop
      vertex -10.5 13 2
      vertex -10.5 9.1 0
      vertex -10.5 13.1 0
    endloop
  endfacet
endsolid OpenSCAD_Model
